<?xml version="1.0" standalone="no"?>
<!DOCTYPE svg PUBLIC "-//W3C//DTD SVG 20010904//EN"
 "http://www.w3.org/TR/2001/REC-SVG-20010904/DTD/svg10.dtd">
<svg version="1.0" xmlns="http://www.w3.org/2000/svg"
 width="260.000000pt" height="260.000000pt" viewBox="0 0 260.000000 260.000000"
 preserveAspectRatio="xMidYMid meet">
<metadata>
Created by potrace 1.14, written by Peter Selinger 2001-2017
</metadata>
<g transform="translate(0.000000,260.000000) scale(0.100000,-0.100000)"
fill="#000000" stroke="none">
<path d="M980 2184 c-218 -24 -358 -80 -460 -184 -107 -108 -152 -262 -131
-440 7 -52 21 -130 32 -173 l20 -78 -25 -52 c-37 -76 -50 -149 -43 -247 11
-156 75 -295 186 -405 112 -111 230 -165 404 -188 110 -14 245 0 412 43 452
118 725 269 812 449 38 79 38 174 -1 294 l-28 87 52 81 c85 132 113 209 114
309 1 76 -2 90 -26 132 -72 122 -225 189 -623 273 -93 19 -228 49 -300 65
-126 28 -308 44 -395 34z m152 -759 c31 -126 60 -249 64 -273 3 -24 9 -40 12
-37 3 3 10 65 16 138 l11 132 61 3 c74 3 70 11 80 -165 4 -67 11 -120 15 -117
5 3 9 15 9 27 0 25 115 501 125 517 7 12 92 14 98 3 2 -5 -6 -57 -18 -118 -12
-60 -44 -221 -70 -357 l-49 -248 -77 0 c-87 0 -80 -9 -95 118 -3 34 -10 64
-14 67 -3 2 -12 -38 -20 -90 l-13 -95 -78 0 c-44 0 -79 2 -79 4 0 5 -59 309
-110 566 -16 79 -26 148 -23 153 2 4 26 7 51 5 l47 -3 57 -230z m-194 58 l3
-33 -65 0 -66 0 0 -65 0 -65 79 0 c83 0 91 -5 91 -51 0 -17 -8 -19 -85 -19
l-86 0 3 -62 3 -63 95 -3 c98 -3 110 -8 110 -50 l0 -23 -152 3 -153 3 -3 233
-2 233 112 -3 113 -3 3 -32z m942 -198 l0 -235 -153 0 -153 0 4 35 4 35 99 0
99 0 0 65 0 65 -86 0 c-74 0 -85 2 -80 16 3 9 6 24 6 35 0 17 8 19 85 19 l85
0 0 65 0 65 -71 0 c-61 0 -70 2 -65 16 3 9 6 24 6 35 0 18 8 19 110 19 l110 0
0 -235z"/>
</g>
</svg>
